<?xml version="1.0" encoding="utf-8"?>
<!-- Generator: Adobe Illustrator 24.2.0, SVG Export Plug-In . SVG Version: 6.00 Build 0)  -->
<svg version="1.1" id="Layer_1" xmlns="http://www.w3.org/2000/svg" xmlns:xlink="http://www.w3.org/1999/xlink" x="0px" y="0px"
	 viewBox="0 0 270.4 82" style="enable-background:new 0 0 270.4 82;" xml:space="preserve">
<style type="text/css">
	.st0{fill:#25B570;}
	.st1{fill:#FFFFFF;}
</style>
<polygon class="st0" points="13.8,77.2 26.9,4.9 23.2,4.9 10.1,77.2 "/>
<polygon class="st0" points="34.7,10.6 31.2,10.6 21,65.9 24.6,65.9 "/>
<polygon class="st0" points="16.1,15.3 12.4,15.3 2.3,70.6 5.9,70.6 "/>
<g>
	<g>
		<path class="st1" d="M163.3,46.6v0.3l5.1-29.2h-12.1L151.9,43l0,0c-2.4,1.2-4.4,1.8-6.6,1.8c-1.1,0-1.4-0.3-1.2-1.4l4.5-25.8h-12
			c0,0-4.3,24.5-4.5,25.7c-1.4,7.9-0.2,11.2,5.2,11.2c6.1,0,9.5-4,14.3-8.6v0.2l-1.7,8.4H162h1.7C163.7,54.6,162.5,51.7,163.3,46.6z
			"/>
		<path class="st1" d="M194.5,23.1l1-5.5h-6.4c0,0,0.1-1.7,0.6-3.5c0.6-2.5,3.3-3.6,5.6-2.9c1.9,0.6,4.3,1.5,4.3,1.5l1.7-7.9h-13.1
			c-5.8,0-9.2,2.8-10.2,8.8c-0.1,0.4-0.4,2.1-0.8,4.1h-4.4l-1,5.5h4.4l-5.4,31.4H183l5.5-31.4L194.5,23.1L194.5,23.1z"/>
		<path class="st1" d="M88.1,17.7c-6,0-8.8,3.3-13.2,7.8c0.4-5.4-1.2-7.8-5.6-7.8c-6.3,0-9,3.7-13.9,8.4l1.5-8.4H43
			c0,0,1.1,2.6,0.3,7.8c-0.8,5.1-5.1,29.1-5.1,29.1h12.1l4.5-25.2v-0.1c2.4-1.2,4.2-1.8,6.5-1.8c1.1,0,1.4,0.3,1.2,1.4L58,54.7h12
			c0,0,4.2-23.8,4.5-25.7c2.1-1,3.7-1.5,5.7-1.5c1.1,0,1.4,0.3,1.2,1.4l-4.5,25.8h12c0,0,4.3-24.5,4.5-25.7
			C94.7,20.9,93.4,17.7,88.1,17.7z"/>
		<path class="st1" d="M211.9,49.2h-5.8c-1,0-1.2-0.3-1.1-1.4l4.4-24.7h5.7c1,0,1.3,0.3,1.1,1.4l-1.3,7.4H227l1-5.5
			c1-6-1.2-8.8-7.1-8.8h-14.2c-5.8,0-9,2.8-10.1,8.8l-3.4,19.4c-1.1,6,1.2,8.8,7,8.8h14.2c5.8,0,9-2.8,10.1-8.8l1-5.5h-12.1
			L211.9,49.2z"/>
		<path class="st1" d="M121.3,32.8l-9.9-1.8c-0.8-0.1-1.2-0.6-1-2.5c0.3-1.8,1.1-5.4,1.1-5.4h4.9c1.5,0,1.4,0.7,1.3,1.5
			c-0.3,1.5-0.5,3.1-0.6,3.8c-0.1,0.7-0.1,1-0.1,1h12V29c1.5-8.5-0.7-11.3-6.6-11.3h-13.5c-5.8,0-9,2.8-10.5,11.3
			c-1.4,7.8,0.7,9.2,6.1,10.3l9.9,1.8c0.7,0.1,1.2,0.5,0.9,2.3c-0.3,2-1,6-1,6H109c-2.2,0-1.9-0.9-1.7-2c0.2-1.6,0.5-3.3,0.7-4
			c0.1-0.6,0.2-1.2,0.2-1.2h-12l-0.2,1c-1.5,8.6,0.7,11.4,6.5,11.4h14.3c5.8,0,9-2.8,10.5-11.4C128.7,35.2,126.6,33.8,121.3,32.8z"
			/>
		<path class="st1" d="M249.9,46.2l-1.7,8.4h12.2h1.7c0,0-1.2-2.8-0.4-8v0.3l5.1-29.2h-12.1L250.3,43l0,0c-2.4,1.2-4.4,1.8-6.6,1.8
			c-1.1,0-1.4-0.3-1.2-1.4l4.5-25.8h-12c0,0-4.3,24.5-4.5,25.7c-1.4,7.9-0.2,11.2,5.2,11.2c6.1,0,9.5-4,14.3-8.6L249.9,46.2z"/>
	</g>
</g>
<path class="st1" d="M270.1,51.3c0,1.9-1.5,3.3-3.4,3.3c-1.9,0-3.4-1.5-3.4-3.3c0-1.8,1.5-3.3,3.4-3.3
	C268.6,48,270.1,49.4,270.1,51.3 M264.2,51.3c0,1.5,1.1,2.6,2.6,2.6c1.4,0,2.5-1.2,2.5-2.6c0-1.5-1.1-2.7-2.5-2.7
	C265.3,48.6,264.2,49.8,264.2,51.3 M266.2,53h-0.8v-3.3c0.3-0.1,0.7-0.1,1.3-0.1c0.6,0,0.9,0.1,1.1,0.2c0.2,0.1,0.3,0.4,0.3,0.7
	c0,0.4-0.3,0.6-0.7,0.8v0c0.3,0.1,0.5,0.4,0.6,0.8c0.1,0.5,0.2,0.7,0.2,0.8h-0.8c-0.1-0.1-0.2-0.4-0.3-0.8c-0.1-0.4-0.3-0.5-0.7-0.5
	h-0.4V53z M266.2,51.1h0.4c0.4,0,0.8-0.1,0.8-0.5c0-0.3-0.2-0.5-0.7-0.5c-0.2,0-0.3,0-0.4,0V51.1z"/>
</svg>
